<svg width="56" height="56" viewBox="0 0 56 56" xmlns="http://www.w3.org/2000/svg"><title>ic_jpeg</title><g fill="none" fill-rule="evenodd"><path d="M48.342 56H1.658C.742 56 0 55.277 0 54.385V28.141c0-.892.742-1.615 1.658-1.615.916 0 1.659.723 1.659 1.615v24.63h43.366v-3.598c0-.892.743-1.615 1.659-1.615S50 48.281 50 49.173v5.212c0 .892-.742 1.615-1.658 1.615z" fill="#25346C" fill-rule="nonzero"/><path fill="#C6CADB" fill-rule="nonzero" d="M2.024 19.72v-.52L19.486 2.05v17.67z"/><path d="M54.297 22.226h-4.318V1.606C49.98.719 49.238 0 48.323 0H19.048l-.183.01a2.266 2.266 0 0 0-.29.058 1.662 1.662 0 0 0-.708.413L.522 17.587a1.612 1.612 0 0 0-.11.12l-.095.126-.081.135-.068.141-.053.148c-.03.115-.034.133-.038.152l-.023.155c-.005.108-.007.128-.007.15v.52c0 .886.741 1.605 1.656 1.605h17.343c.915 0 1.656-.719 1.656-1.605V3.212h25.964v19.014H18.338c-.915 0-1.656.72-1.656 1.606v17.78c0 .887.741 1.606 1.656 1.606h35.958c.915 0 1.657-.719 1.657-1.606v-17.78c0-.887-.742-1.606-1.656-1.606zm-49.17-4.597l5.369-5.296L17.39 5.53v12.1H5.126zM52.64 40.006H19.994V25.438h32.647v14.568z" fill="#25346C" fill-rule="nonzero"/><path d="M28.44 29.006V33.3c0 .373-.016.69-.048.95a2.966 2.966 0 0 1-.215.794 2.144 2.144 0 0 1-.922 1.054c-.43.252-.95.378-1.566.378-.555 0-1.018-.088-1.39-.263a2.038 2.038 0 0 1-.896-.85 3.1 3.1 0 0 1-.291-.721 2.942 2.942 0 0 1-.112-.777c0-.261.073-.46.218-.599a.78.78 0 0 1 .56-.206c.219 0 .385.063.497.19.112.126.197.324.257.592.063.287.127.517.19.688.063.171.17.319.319.442s.361.184.637.184c.734 0 1.101-.538 1.101-1.616v-4.534c0-.335.074-.587.221-.754.147-.168.348-.252.601-.252.257 0 .461.084.612.252.151.167.227.419.227.754zm3.981 4.137h-1.52v2.32c0 .332-.079.584-.235.755a.768.768 0 0 1-.593.258.774.774 0 0 1-.604-.255c-.153-.17-.229-.418-.229-.746v-6.318c0-.365.084-.626.252-.782.167-.157.434-.235.8-.235h2.13c.63 0 1.114.048 1.453.145a2.092 2.092 0 0 1 1.426 1.258c.126.313.19.665.19 1.057 0 .835-.258 1.467-.772 1.898-.514.43-1.28.645-2.298.645zm-.402-3.756H30.9v2.504h1.119c.391 0 .718-.04.98-.123.264-.082.464-.216.602-.402.138-.187.207-.43.207-.733 0-.361-.107-.656-.319-.883-.239-.242-.729-.363-1.47-.363zm9.259.033h-3.74v2.013h3.443c.254 0 .443.057.568.17a.58.58 0 0 1 .187.45.602.602 0 0 1-.184.456c-.123.117-.313.176-.57.176h-3.445v2.331h3.87c.26 0 .457.061.59.182a.624.624 0 0 1 .198.484.61.61 0 0 1-.199.472c-.132.121-.329.182-.59.182h-4.511c-.362 0-.622-.08-.78-.24-.159-.16-.238-.42-.238-.778v-6.16c0-.24.035-.434.106-.585a.66.66 0 0 1 .333-.33c.15-.069.344-.103.579-.103h4.383c.264 0 .46.058.59.176a.595.595 0 0 1 .192.461.6.6 0 0 1-.193.467c-.128.117-.325.176-.59.176zM50 33.004v1.57c0 .21-.02.376-.061.501a.793.793 0 0 1-.227.338c-.11.101-.25.198-.422.291a6.638 6.638 0 0 1-1.431.587 5.77 5.77 0 0 1-1.499.185 4.88 4.88 0 0 1-1.722-.291 3.622 3.622 0 0 1-1.325-.844 3.727 3.727 0 0 1-.841-1.342 5.016 5.016 0 0 1-.293-1.761c0-.638.095-1.22.285-1.75.19-.53.47-.978.838-1.347a3.68 3.68 0 0 1 1.348-.847c.529-.196 1.129-.294 1.8-.294.551 0 1.04.074 1.465.22.425.148.77.333 1.034.557.265.224.464.46.598.71.134.25.201.472.201.665a.71.71 0 0 1-.232.534.778.778 0 0 1-.9.137.78.78 0 0 1-.276-.234 6.61 6.61 0 0 0-.52-.727 1.677 1.677 0 0 0-.573-.414c-.24-.112-.547-.168-.92-.168-.384 0-.727.066-1.029.199-.302.132-.56.324-.774.576-.214.251-.378.56-.492.925a4.07 4.07 0 0 0-.17 1.213c0 .962.22 1.702.662 2.22.442.518 1.057.777 1.848.777.383 0 .744-.05 1.081-.151.338-.1.68-.244 1.026-.43v-1.331h-1.286c-.309 0-.543-.047-.701-.14-.159-.093-.238-.252-.238-.475a.58.58 0 0 1 .199-.453c.132-.12.312-.18.54-.18h1.883a2.4 2.4 0 0 1 .587.062c.16.041.29.133.389.274.099.142.148.354.148.638z" fill="#25346C"/></g></svg>